<?xml version="1.0" encoding="iso-8859-1"?>
<!-- Generator: Adobe Illustrator 16.0.0, SVG Export Plug-In . SVG Version: 6.00 Build 0)  -->
<!DOCTYPE svg PUBLIC "-//W3C//DTD SVG 1.1//EN" "http://www.w3.org/Graphics/SVG/1.1/DTD/svg11.dtd">
<svg version="1.1" id="Capa_1" xmlns="http://www.w3.org/2000/svg" xmlns:xlink="http://www.w3.org/1999/xlink" x="0px" y="0px"
	 width="31.582px" height="31.582px" viewBox="0 0 31.582 31.582" style="enable-background:new 0 0 31.582 31.582;"
	 xml:space="preserve">
<g>
	<g>
		<path d="M26.018,6.8h-2.789L16.53,1.101C16.567,1.008,16.59,0.907,16.59,0.8c0-0.441-0.358-0.8-0.8-0.8S14.99,0.358,14.99,0.8
			c0,0.106,0.022,0.208,0.061,0.301L8.353,6.8H5.563C4.371,6.8,3.4,7.771,3.4,8.963v20.456c0,1.193,0.97,2.163,2.163,2.163h18.013
			l4.605-4.605V8.963C28.181,7.77,27.209,6.8,26.018,6.8z M15.384,1.474c0.121,0.073,0.255,0.127,0.406,0.127
			s0.285-0.054,0.406-0.127l6.26,5.326H9.124L15.384,1.474z M14.973,23.207c-0.183,0.425-0.433,0.771-0.747,1.038
			c-0.314,0.269-0.688,0.464-1.116,0.59c-0.431,0.127-0.887,0.188-1.369,0.188c-0.557,0-1.058-0.049-1.504-0.148
			c-0.445-0.1-0.831-0.277-1.156-0.534c-0.324-0.258-0.574-0.61-0.746-1.063c-0.174-0.449-0.261-1.031-0.261-1.745h2.55
			c0,0.252,0.012,0.487,0.039,0.709c0.025,0.219,0.076,0.411,0.15,0.573c0.072,0.162,0.171,0.293,0.297,0.394
			c0.127,0.101,0.289,0.149,0.489,0.149c0.335,0,0.587-0.114,0.754-0.346c0.168-0.231,0.252-0.662,0.252-1.291
			c0-0.355-0.022-0.649-0.07-0.882c-0.047-0.229-0.126-0.412-0.236-0.543c-0.109-0.131-0.251-0.223-0.425-0.274
			c-0.173-0.053-0.391-0.078-0.652-0.078h-0.632v-1.668h0.725c0.441,0,0.74-0.144,0.896-0.426c0.158-0.283,0.237-0.697,0.237-1.242
			c0-0.44-0.071-0.764-0.212-0.969c-0.143-0.203-0.365-0.307-0.67-0.307c-0.294,0-0.538,0.109-0.731,0.331
			c-0.193,0.22-0.291,0.646-0.291,1.272h-2.36c0-1.11,0.283-1.93,0.85-2.455c0.577-0.545,1.484-0.818,2.723-0.818
			c1.102,0,1.917,0.242,2.446,0.725c0.529,0.483,0.795,1.264,0.795,2.346c0,0.564-0.137,1.051-0.409,1.453
			c-0.272,0.404-0.666,0.664-1.182,0.779v0.031c0.662,0.146,1.134,0.434,1.418,0.857c0.282,0.425,0.424,1.029,0.424,1.816
			C15.248,22.27,15.156,22.782,14.973,23.207z M23.398,21.579c-0.074,0.69-0.236,1.292-0.488,1.802s-0.619,0.909-1.102,1.202
			c-0.482,0.295-1.139,0.44-1.966,0.44c-0.841,0-1.501-0.129-1.984-0.385c-0.481-0.257-0.849-0.627-1.101-1.109
			c-0.252-0.482-0.412-1.075-0.479-1.777c-0.069-0.703-0.103-1.506-0.103-2.408c0-0.796,0.036-1.542,0.11-2.232
			c0.073-0.692,0.236-1.293,0.487-1.803c0.253-0.509,0.619-0.91,1.103-1.204c0.481-0.293,1.138-0.441,1.968-0.441
			c0.827,0,1.485,0.13,1.974,0.387c0.488,0.258,0.857,0.627,1.11,1.109c0.251,0.482,0.411,1.078,0.479,1.785
			c0.066,0.707,0.1,1.508,0.1,2.398C23.508,20.143,23.472,20.887,23.398,21.579z"/>
		<path d="M20.69,16.15c-0.071-0.305-0.178-0.518-0.313-0.639c-0.137-0.119-0.313-0.181-0.533-0.181
			c-0.223,0-0.399,0.062-0.536,0.181c-0.138,0.121-0.241,0.334-0.313,0.639c-0.074,0.304-0.121,0.716-0.143,1.234
			c-0.021,0.52-0.031,1.178-0.031,1.975c0,0.787,0.01,1.438,0.031,1.951c0.021,0.514,0.068,0.924,0.143,1.228
			c0.072,0.305,0.178,0.519,0.313,0.637c0.137,0.121,0.313,0.183,0.536,0.183c0.22,0,0.396-0.062,0.533-0.183
			c0.137-0.118,0.242-0.332,0.313-0.637c0.074-0.304,0.122-0.713,0.144-1.228c0.021-0.514,0.031-1.164,0.031-1.951
			c0-0.797-0.011-1.455-0.031-1.975C20.812,16.866,20.766,16.454,20.69,16.15z"/>
	</g>
</g>
<g>
</g>
<g>
</g>
<g>
</g>
<g>
</g>
<g>
</g>
<g>
</g>
<g>
</g>
<g>
</g>
<g>
</g>
<g>
</g>
<g>
</g>
<g>
</g>
<g>
</g>
<g>
</g>
<g>
</g>
</svg>
