<?xml version="1.0"?>
<svg xmlns="http://www.w3.org/2000/svg" xmlns:xlink="http://www.w3.org/1999/xlink" xmlns:svgjs="http://svgjs.com/svgjs" version="1.1" width="512" height="512" x="0" y="0" viewBox="0 0 192 192" style="enable-background:new 0 0 512 512" xml:space="preserve" class=""><g><circle xmlns="http://www.w3.org/2000/svg" cx="96" cy="32" r="8" fill="#3a18fe" data-original="#000000" style=""/><circle xmlns="http://www.w3.org/2000/svg" cx="184" cy="72" r="8" fill="#3a18fe" data-original="#000000" style=""/><circle xmlns="http://www.w3.org/2000/svg" cx="8" cy="72" r="8" fill="#3a18fe" data-original="#000000" style=""/><path xmlns="http://www.w3.org/2000/svg" d="m23.805 160h144.395l15.61-70.265a8 8 0 0 0 -12.248-8.391l-40.462 26.972-27.945-55.894a8 8 0 0 0 -14.31 0l-27.945 55.894-40.463-26.972a8 8 0 0 0 -12.247 8.391z" fill="#3a18fe" data-original="#000000" style=""/><path xmlns="http://www.w3.org/2000/svg" d="m24 168v16a8 8 0 0 0 8 8h128a8 8 0 0 0 8-8v-16z" fill="#3a18fe" data-original="#000000" style=""/></g></svg>
